<mxfile host="app.diagrams.net" modified="2023-09-21T11:59:02.244Z" agent="Mozilla/5.0 (Windows NT 10.0; Win64; x64) AppleWebKit/537.36 (KHTML, like Gecko) Chrome/116.0.0.0 Safari/537.36" etag="NsdhljoMqxEgrbwW5uvw" version="21.7.5" type="device">
  <diagram name="Page-1" id="2g-C7YC79J_KoNVsVvH5">
    <mxGraphModel dx="1154" dy="517" grid="1" gridSize="10" guides="1" tooltips="1" connect="1" arrows="1" fold="1" page="1" pageScale="1" pageWidth="827" pageHeight="1169" math="0" shadow="0">
      <root>
        <mxCell id="0" />
        <mxCell id="1" parent="0" />
        <mxCell id="dzmxft2GeK-ZVEtX1MlG-1" value="User" style="swimlane;fontStyle=0;childLayout=stackLayout;horizontal=1;startSize=26;fillColor=none;horizontalStack=0;resizeParent=1;resizeParentMax=0;resizeLast=0;collapsible=1;marginBottom=0;whiteSpace=wrap;html=1;" parent="1" vertex="1">
          <mxGeometry x="20" y="150" width="190" height="200" as="geometry" />
        </mxCell>
        <mxCell id="dzmxft2GeK-ZVEtX1MlG-2" value="Id : tinyint : PK&lt;br&gt;&lt;br&gt;Password : varchar(100) : null&lt;br&gt;&lt;br&gt;Email : varchar(50) UK : null&lt;br&gt;&lt;br&gt;Number : varchar(12)&lt;br&gt;&lt;br&gt;FirstName : varchar(20)&lt;br&gt;&lt;br&gt;Lastname : varchar(20)" style="text;strokeColor=none;fillColor=none;align=left;verticalAlign=top;spacingLeft=4;spacingRight=4;overflow=hidden;rotatable=0;points=[[0,0.5],[1,0.5]];portConstraint=eastwest;whiteSpace=wrap;html=1;" parent="dzmxft2GeK-ZVEtX1MlG-1" vertex="1">
          <mxGeometry y="26" width="190" height="174" as="geometry" />
        </mxCell>
        <mxCell id="dzmxft2GeK-ZVEtX1MlG-5" value="Reservation" style="swimlane;fontStyle=0;childLayout=stackLayout;horizontal=1;startSize=26;fillColor=none;horizontalStack=0;resizeParent=1;resizeParentMax=0;resizeLast=0;collapsible=1;marginBottom=0;whiteSpace=wrap;html=1;" parent="1" vertex="1">
          <mxGeometry x="560" y="140" width="160" height="170" as="geometry">
            <mxRectangle x="330" y="170" width="100" height="30" as="alternateBounds" />
          </mxGeometry>
        </mxCell>
        <mxCell id="dzmxft2GeK-ZVEtX1MlG-6" value="Id : tinyint : PK&lt;br style=&quot;border-color: var(--border-color);&quot;&gt;&lt;br&gt;AmmountOfPeople : int&lt;br&gt;&lt;br&gt;AmmountOfChildren : int&lt;br&gt;&lt;br style=&quot;border-color: var(--border-color);&quot;&gt;ReservationTime : datetime&lt;br style=&quot;border-color: var(--border-color);&quot;&gt;&lt;br style=&quot;border-color: var(--border-color);&quot;&gt;Comment : string" style="text;strokeColor=none;fillColor=none;align=left;verticalAlign=top;spacingLeft=4;spacingRight=4;overflow=hidden;rotatable=0;points=[[0,0.5],[1,0.5]];portConstraint=eastwest;whiteSpace=wrap;html=1;" parent="dzmxft2GeK-ZVEtX1MlG-5" vertex="1">
          <mxGeometry y="26" width="160" height="144" as="geometry" />
        </mxCell>
        <mxCell id="dzmxft2GeK-ZVEtX1MlG-16" value="UserReservation" style="swimlane;fontStyle=0;childLayout=stackLayout;horizontal=1;startSize=26;fillColor=none;horizontalStack=0;resizeParent=1;resizeParentMax=0;resizeLast=0;collapsible=1;marginBottom=0;whiteSpace=wrap;html=1;" parent="1" vertex="1">
          <mxGeometry x="330" y="158" width="150" height="120" as="geometry" />
        </mxCell>
        <mxCell id="dzmxft2GeK-ZVEtX1MlG-17" value="id : tinyint : PK&lt;br&gt;&lt;br&gt;UserId : tinyint : FK&lt;br&gt;&lt;br&gt;Reservation : tinyint : FK" style="text;strokeColor=none;fillColor=none;align=left;verticalAlign=top;spacingLeft=4;spacingRight=4;overflow=hidden;rotatable=0;points=[[0,0.5],[1,0.5]];portConstraint=eastwest;whiteSpace=wrap;html=1;" parent="dzmxft2GeK-ZVEtX1MlG-16" vertex="1">
          <mxGeometry y="26" width="150" height="94" as="geometry" />
        </mxCell>
        <mxCell id="dzmxft2GeK-ZVEtX1MlG-20" style="edgeStyle=orthogonalEdgeStyle;rounded=0;orthogonalLoop=1;jettySize=auto;html=1;entryX=0.997;entryY=0.076;entryDx=0;entryDy=0;entryPerimeter=0;" parent="1" source="dzmxft2GeK-ZVEtX1MlG-17" target="dzmxft2GeK-ZVEtX1MlG-2" edge="1">
          <mxGeometry relative="1" as="geometry" />
        </mxCell>
        <mxCell id="dzmxft2GeK-ZVEtX1MlG-22" style="edgeStyle=orthogonalEdgeStyle;rounded=0;orthogonalLoop=1;jettySize=auto;html=1;entryX=-0.007;entryY=0.114;entryDx=0;entryDy=0;entryPerimeter=0;" parent="1" source="dzmxft2GeK-ZVEtX1MlG-17" target="dzmxft2GeK-ZVEtX1MlG-6" edge="1">
          <mxGeometry relative="1" as="geometry" />
        </mxCell>
        <mxCell id="dzmxft2GeK-ZVEtX1MlG-35" value="User&#39;s password&lt;br&gt;and email are only neceserry for accounts" style="whiteSpace=wrap;html=1;" parent="1" vertex="1">
          <mxGeometry x="270" y="400" width="230" height="110" as="geometry" />
        </mxCell>
      </root>
    </mxGraphModel>
  </diagram>
</mxfile>
